<svg width="130" height="32" viewBox="0 0 130 32" fill="none" xmlns="http://www.w3.org/2000/svg">
<path fill-rule="evenodd" clip-rule="evenodd" d="M75.7538 10.8224H40.2883C39.7352 10.8222 39.2048 10.602 38.8137 10.2103C38.4226 9.81846 38.2028 9.28714 38.2026 8.73306V3.1984C38.2026 2.64421 38.4224 2.11271 38.8135 1.72078C39.2046 1.32885 39.7351 1.10858 40.2883 1.1084H75.7531C76.3064 1.1084 76.8371 1.32859 77.2283 1.72055C77.6196 2.1125 77.8394 2.6441 77.8394 3.1984V8.73306C77.8392 9.28725 77.6193 9.81868 77.2281 10.2105C76.8369 10.6023 76.3063 10.8224 75.7531 10.8224" fill="#FF4713"/>
<path fill-rule="evenodd" clip-rule="evenodd" d="M52.1991 3.77286H53.0755L54.7512 8.15686L53.7909 8.16086L53.5447 7.49953H51.7306L51.4844 8.16086H50.5221L50.5427 8.10353L52.1991 3.77286ZM56.6172 3.77286H56.9467L59.4715 6.41286V3.77286H60.3719V8.1602H60.0152L57.5196 5.5482V8.1602H56.6172V3.77353V3.77286ZM48.6414 3.76953V8.1602H47.743V3.76953H48.6414ZM41.8828 3.77286H42.2136L44.7371 6.41286V3.77286H45.6381V8.1602H45.2814L42.7859 5.5482V8.1602H41.8828V3.77353V3.77286ZM68.6718 3.76953V8.1602H67.7734V3.76953H68.6718ZM65.8834 3.77286V4.65953H64.5105V8.16086H63.6095V4.65953H62.2386V3.77286H65.8827H65.8834ZM72.7059 3.77286C73.2556 3.77286 73.6423 3.9402 74.0322 4.27153L74.1607 4.38486L73.5597 5.0722L73.5311 5.04886C73.2603 4.8262 73.0566 4.71286 72.7059 4.71286C72.3486 4.7142 72.0571 4.83286 71.8408 5.06286C71.6232 5.29153 71.5127 5.59153 71.5127 5.95286C71.5147 6.33953 71.6259 6.64953 71.8441 6.87553C72.0617 7.1022 72.3539 7.21753 72.7099 7.21753C73.0294 7.21753 73.223 7.12886 73.4459 6.9542L73.5591 6.86086L74.1607 7.54953L74.1301 7.5762C73.7055 7.96286 73.3009 8.1602 72.7059 8.1602C72.115 8.15753 71.6145 7.94486 71.2133 7.52953C70.814 7.11286 70.611 6.5842 70.611 5.9582C70.6123 5.34486 70.816 4.82286 71.2153 4.40286C71.6145 3.98486 72.1156 3.77286 72.7059 3.77286ZM52.6583 5.03286L52.0647 6.5742L53.2253 6.5602L52.6583 5.0322V5.03286Z" fill="white"/>
<path fill-rule="evenodd" clip-rule="evenodd" d="M95.2151 14.9893C97.1417 14.9893 98.5652 16.0127 99.3019 17.5733L97.6768 18.5133C97.2588 17.5733 96.5215 16.8687 95.2151 16.8687C94.0931 16.8687 93.3731 17.4393 93.3731 18.3287C93.3731 19.1173 93.8682 19.512 95.1253 19.9553L95.4168 20.0553L96.3658 20.3613L96.6153 20.4453L96.8615 20.5327L97.1038 20.6233L97.3407 20.7187L97.5716 20.82C98.7468 21.3553 99.6373 22.1427 99.6373 23.714C99.6373 25.862 97.9283 27.1707 95.4833 27.1707C93.1721 27.1707 91.5809 26.0293 90.9607 24.2847L92.6191 23.3113C93.0383 24.5027 93.9427 25.2913 95.5332 25.2913C97.0578 25.2913 97.7107 24.6033 97.7107 23.748C97.7107 22.9093 97.1117 22.5173 95.9665 22.116L95.6803 22.0187L95.3742 21.92L94.7992 21.742L94.4299 21.6227L94.187 21.5393L94.0672 21.496L93.8309 21.406C92.5066 20.8793 91.4472 20.09 91.4472 18.3787C91.4472 16.214 93.2386 14.9893 95.2151 14.9893ZM60.0145 14.9893C62.2418 14.9893 64.1351 16.1133 65.1234 17.7747L63.465 18.7307C62.8621 17.64 61.5557 16.8687 60.0145 16.8687C57.5362 16.8687 55.794 18.698 55.794 21.0967C55.794 23.462 57.5023 25.2913 60.1323 25.2913C62.2591 25.2913 63.5655 24.1847 63.9169 22.6073H59.9972V20.8787H65.8601V21.684C65.8601 24.8887 63.5482 27.1707 60.115 27.1707C56.4641 27.1707 53.8674 24.4527 53.8674 21.08C53.8674 17.7073 56.4974 14.9893 60.0145 14.9893ZM125.053 15.2073C127.264 15.2073 128.939 16.8853 128.939 19.0667C128.939 21.2313 127.264 22.9253 125.053 22.9253H122.658V26.952H120.732V15.208H125.053V15.2073ZM117.046 15.2073V26.9533H115.12V15.2067H117.046V15.2073ZM104.481 15.2073V20.0227H109.505V15.2073H111.431V26.9533H109.505V21.8687H104.481V26.9533H102.555V15.2067H104.481V15.2073ZM89.1493 15.2073V17.0527H85.8498V26.9527H83.9232V17.0527H80.6065V15.2073H89.1493ZM70.8885 15.2073V20.0227H75.9128V15.2073H77.8401V26.9533H75.9135V21.8687H70.8891V26.9533H68.9625V15.2067H70.8885V15.2073ZM50.7683 15.2073V26.9533H48.8417V15.2067H50.7683V15.2073ZM41.3018 15.2073V25.1067H46.0753V26.9527H39.3766V15.2067H41.3025L41.3018 15.2073ZM125.053 17.0193H122.658V21.1133H125.053C126.192 21.1133 127.013 20.2407 127.013 19.0667C127.013 17.8753 126.192 17.02 125.053 17.02V17.0193ZM15.9716 0C18.5084 0 20.9387 0.582667 23.1954 1.732C23.2161 1.74242 23.2339 1.75788 23.2471 1.77698C23.2603 1.79607 23.2685 1.81817 23.2709 1.84127C23.2734 1.86436 23.27 1.8877 23.2611 1.90914C23.2522 1.93059 23.2381 1.94945 23.22 1.964L23.1934 1.98067L20.1388 3.48533C20.106 3.50135 20.0682 3.50375 20.0337 3.492C18.7218 3.06495 17.3509 2.84784 15.9716 2.84867C14.2467 2.84397 12.5381 3.18206 10.9446 3.84338C9.35106 4.50469 7.90431 5.47609 6.68809 6.70133C5.46506 7.91951 4.49536 9.36859 3.83511 10.9647C3.17487 12.5608 2.83718 14.2723 2.84161 16C2.84161 17.02 3.18633 17.764 3.86645 18.2107C5.26196 19.1293 7.85601 18.7407 10.271 18.0427L10.7076 17.9127L11.1382 17.7767L11.5621 17.6367L11.7697 17.566L12.1783 17.4227L12.5743 17.2787L13.1419 17.0633L13.4993 16.9233L13.8387 16.7867L14.4529 16.5307L14.7244 16.4133C14.8409 16.3613 14.9704 16.3462 15.0957 16.37C15.2209 16.3938 15.3359 16.4555 15.4252 16.5467C15.5163 16.6361 15.5779 16.7512 15.6017 16.8767C15.6255 17.0023 15.6103 17.132 15.5583 17.2487L15.3187 17.818L15.1204 18.3047L14.9121 18.8353L14.7697 19.2107L14.6266 19.6007L14.4835 20.0047L14.3418 20.4193C14.3178 20.4893 14.2952 20.5593 14.2719 20.6307L14.1348 21.0587L14.0024 21.494L13.876 21.934C13.2225 24.29 12.8864 26.776 13.7748 28.1307C14.2193 28.808 14.958 29.1507 15.9709 29.1507C19.478 29.1507 22.7741 27.7833 25.2544 25.2987C26.4773 24.0804 27.4469 22.6313 28.107 21.0352C28.7671 19.4391 29.1047 17.7277 29.1002 16C29.1002 14.5107 28.8506 13.044 28.3582 11.64C28.3498 11.6165 28.348 11.5911 28.3528 11.5667L28.3642 11.532L29.8415 8.52133C29.8527 8.4984 29.87 8.479 29.8915 8.46524C29.913 8.45148 29.9378 8.44391 29.9633 8.44333C30.0099 8.44267 30.0638 8.47133 30.0884 8.51733C31.305 10.8233 31.9416 13.3918 31.9431 16C31.9431 24.822 24.7785 32 15.9716 32C7.16591 32 0 24.822 0 16C0 7.178 7.16524 0 15.9716 0ZM28.8387 1.59933C29.6752 1.18733 30.5556 2.03467 30.2162 2.87467L30.1836 2.946L22.657 18.292C22.2777 19.0653 21.1803 19.0273 20.8402 18.2653L20.8076 18.1833L19.0947 13.322C19.0498 13.1947 18.9799 13.0778 18.889 12.9781C18.7981 12.8785 18.6881 12.7982 18.5656 12.742L18.4818 12.708L13.6284 10.9913C12.8178 10.7047 12.7267 9.60867 13.4434 9.18067L13.5206 9.13867L28.8387 1.59867V1.59933Z" fill="#091F40"/>
</svg>
